<svg width="25" height="24" viewBox="0 0 25 24" fill="none" xmlns="http://www.w3.org/2000/svg">
<g id="Vector">
<path id="Vector_2" d="M4.51181 15.25C4.50931 15.1645 4.50781 15.0785 4.50781 14.992C4.50781 10.578 8.08581 7 12.4998 7C16.9138 7 20.4918 10.578 20.4918 14.992C20.4918 15.0785 20.4903 15.164 20.4878 15.25" stroke="#ABB4BE" stroke-miterlimit="10" stroke-linecap="round" stroke-linejoin="round"/>
<path id="Vector_3" d="M2.75 7.25H21.75" stroke="#ABB4BE" stroke-miterlimit="10" stroke-linecap="round" stroke-linejoin="round"/>
<path id="Vector_4" d="M14 9.75H11C10.45 9.75 10 9.3 10 8.75V5.75C10 5.2 10.45 4.75 11 4.75H14C14.55 4.75 15 5.2 15 5.75V8.75C15 9.3 14.55 9.75 14 9.75Z" fill="url(#paint0_linear_4587_73118)"/>
<path id="Vector_5" d="M22 20.25H19C18.45 20.25 18 19.8 18 19.25V16.25C18 15.7 18.45 15.25 19 15.25H22C22.55 15.25 23 15.7 23 16.25V19.25C23 19.8 22.55 20.25 22 20.25Z" fill="url(#paint1_linear_4587_73118)"/>
<path id="Vector_6" d="M6 20.25H3C2.45 20.25 2 19.8 2 19.25V16.25C2 15.7 2.45 15.25 3 15.25H6C6.55 15.25 7 15.7 7 16.25V19.25C7 19.8 6.55 20.25 6 20.25Z" fill="url(#paint2_linear_4587_73118)"/>
<path id="Vector_7" d="M22.5 8.75C23.3284 8.75 24 8.07843 24 7.25C24 6.42157 23.3284 5.75 22.5 5.75C21.6716 5.75 21 6.42157 21 7.25C21 8.07843 21.6716 8.75 22.5 8.75Z" fill="url(#paint3_linear_4587_73118)"/>
<path id="Vector_8" d="M2.5 8.75C3.32843 8.75 4 8.07843 4 7.25C4 6.42157 3.32843 5.75 2.5 5.75C1.67157 5.75 1 6.42157 1 7.25C1 8.07843 1.67157 8.75 2.5 8.75Z" fill="url(#paint4_linear_4587_73118)"/>
</g>
<defs>
<linearGradient id="paint0_linear_4587_73118" x1="11.7925" y1="4.6105" x2="13.124" y2="9.5795" gradientUnits="userSpaceOnUse">
<stop stop-color="#2AA4F4"/>
<stop offset="1" stop-color="#007AD9"/>
</linearGradient>
<linearGradient id="paint1_linear_4587_73118" x1="19.793" y1="15.1105" x2="21.124" y2="20.0795" gradientUnits="userSpaceOnUse">
<stop stop-color="#2AA4F4"/>
<stop offset="1" stop-color="#007AD9"/>
</linearGradient>
<linearGradient id="paint2_linear_4587_73118" x1="3.7925" y1="15.1105" x2="5.124" y2="20.0795" gradientUnits="userSpaceOnUse">
<stop stop-color="#2AA4F4"/>
<stop offset="1" stop-color="#007AD9"/>
</linearGradient>
<linearGradient id="paint3_linear_4587_73118" x1="21.5055" y1="6.2555" x2="23.606" y2="8.356" gradientUnits="userSpaceOnUse">
<stop stop-color="#33BEF0"/>
<stop offset="1" stop-color="#0A85D9"/>
</linearGradient>
<linearGradient id="paint4_linear_4587_73118" x1="1.5055" y1="6.2555" x2="3.606" y2="8.356" gradientUnits="userSpaceOnUse">
<stop stop-color="#33BEF0"/>
<stop offset="1" stop-color="#0A85D9"/>
</linearGradient>
</defs>
</svg>
