<svg width="25" height="24" viewBox="0 0 25 24" fill="none" xmlns="http://www.w3.org/2000/svg">
<path d="M18.6158 11.9912C18.6158 9.05868 20.9988 7.73618 21.0988 7.67318C19.8008 5.67668 17.7038 5.43968 16.9178 5.43918C15.0963 5.43918 13.4863 6.45018 12.6253 6.45018C11.7268 6.45018 10.4163 5.38968 8.94376 5.43918C7.02226 5.47668 5.26226 6.61218 4.27676 8.28468C3.57826 9.48268 3.30326 10.8932 3.32876 12.3282C3.32976 12.3847 3.33726 12.4422 3.33876 12.4987H18.6598C18.6393 12.3342 18.6213 12.1672 18.6158 11.9912Z" fill="#0883D9"/>
<path d="M15.7823 3.5315C16.6303 2.5955 17.1048 1.3105 17.0298 0C15.8568 0 14.4968 0.686 13.6358 1.697C12.9618 2.533 12.2383 3.8435 12.5003 5.1535C13.7108 5.3035 15.0213 4.5425 15.7823 3.5315Z" fill="#0883D9"/>
<path d="M9.25537 22.5C10.6409 22.5 11.1524 21.576 12.9619 21.576C14.6469 21.576 15.1709 22.5 16.6309 22.5C18.1659 22.5 19.1769 21.1025 20.0874 19.7165C21.2349 18.1075 21.6224 16.5725 21.6719 16.5095C21.6249 16.5095 19.0284 15.4535 18.6589 12.5H3.33887C3.41737 15.1555 4.45287 17.895 5.67437 19.6545C6.63487 21.0275 7.72037 22.5 9.25537 22.5Z" fill="#0370C8"/>
</svg>
