<svg width="35" height="24" viewBox="0 0 35 24" fill="none" xmlns="http://www.w3.org/2000/svg">
<rect x="0.5" y="4" width="34" height="16" rx="4" fill="#FADB5F"/>
<rect x="0.5" y="4" width="34" height="16" rx="4" fill="url(#paint0_radial_4587_75158)"/>
<path d="M5.3608 16V7.27273H10.9517V8.59801H6.94176V10.9673H10.5682V12.2926H6.94176V16H5.3608ZM12.2301 16V9.45455H13.7259V10.5455H13.794C13.9134 10.1676 14.1179 9.87642 14.4077 9.67188C14.7003 9.46449 15.0341 9.3608 15.4091 9.3608C15.4943 9.3608 15.5895 9.36506 15.6946 9.37358C15.8026 9.37926 15.892 9.3892 15.9631 9.40341V10.8224C15.8977 10.7997 15.794 10.7798 15.652 10.7628C15.5128 10.7429 15.3778 10.733 15.2472 10.733C14.9659 10.733 14.7131 10.794 14.4886 10.9162C14.267 11.0355 14.0923 11.2017 13.9645 11.4148C13.8366 11.6278 13.7727 11.8736 13.7727 12.152V16H12.2301ZM19.6161 16.1278C18.9599 16.1278 18.3931 15.9915 17.9158 15.7188C17.4414 15.4432 17.0763 15.054 16.8207 14.5511C16.565 14.0455 16.4371 13.4503 16.4371 12.7656C16.4371 12.0923 16.565 11.5014 16.8207 10.9929C17.0792 10.4815 17.44 10.0838 17.9031 9.79972C18.3661 9.51278 18.9102 9.36932 19.5352 9.36932C19.9386 9.36932 20.3192 9.43466 20.6772 9.56534C21.038 9.69318 21.3562 9.89205 21.6317 10.1619C21.9102 10.4318 22.1289 10.7756 22.288 11.1932C22.4471 11.608 22.5266 12.1023 22.5266 12.6761V13.1491H17.1616V12.1094H21.0479C21.0451 11.8139 20.9812 11.5511 20.8562 11.321C20.7312 11.0881 20.5565 10.9048 20.332 10.7713C20.1104 10.6378 19.8519 10.571 19.5565 10.571C19.2411 10.571 18.9641 10.6477 18.7255 10.8011C18.4869 10.9517 18.3008 11.1506 18.1673 11.3977C18.0366 11.642 17.9698 11.9105 17.967 12.2031V13.1108C17.967 13.4915 18.0366 13.8182 18.1758 14.0909C18.315 14.3608 18.5096 14.5682 18.7596 14.7131C19.0096 14.8551 19.3022 14.9261 19.6374 14.9261C19.8619 14.9261 20.065 14.8949 20.2468 14.8324C20.4286 14.767 20.5863 14.6719 20.7198 14.5469C20.8533 14.4219 20.9542 14.267 21.0224 14.0824L22.4627 14.2443C22.3718 14.625 22.1985 14.9574 21.9428 15.2415C21.69 15.5227 21.3661 15.7415 20.9712 15.8977C20.5763 16.0511 20.1246 16.1278 19.6161 16.1278ZM26.7294 16.1278C26.0732 16.1278 25.5064 15.9915 25.0291 15.7188C24.5547 15.4432 24.1896 15.054 23.9339 14.5511C23.6783 14.0455 23.5504 13.4503 23.5504 12.7656C23.5504 12.0923 23.6783 11.5014 23.9339 10.9929C24.1925 10.4815 24.5533 10.0838 25.0163 9.79972C25.4794 9.51278 26.0234 9.36932 26.6484 9.36932C27.0518 9.36932 27.4325 9.43466 27.7905 9.56534C28.1513 9.69318 28.4695 9.89205 28.745 10.1619C29.0234 10.4318 29.2422 10.7756 29.4013 11.1932C29.5604 11.608 29.6399 12.1023 29.6399 12.6761V13.1491H24.2749V12.1094H28.1612C28.1584 11.8139 28.0945 11.5511 27.9695 11.321C27.8445 11.0881 27.6697 10.9048 27.4453 10.7713C27.2237 10.6378 26.9652 10.571 26.6697 10.571C26.3544 10.571 26.0774 10.6477 25.8388 10.8011C25.6001 10.9517 25.4141 11.1506 25.2805 11.3977C25.1499 11.642 25.0831 11.9105 25.0803 12.2031V13.1108C25.0803 13.4915 25.1499 13.8182 25.2891 14.0909C25.4283 14.3608 25.6229 14.5682 25.8729 14.7131C26.1229 14.8551 26.4155 14.9261 26.7507 14.9261C26.9751 14.9261 27.1783 14.8949 27.3601 14.8324C27.5419 14.767 27.6996 14.6719 27.8331 14.5469C27.9666 14.4219 28.0675 14.267 28.1357 14.0824L29.576 14.2443C29.4851 14.625 29.3118 14.9574 29.0561 15.2415C28.8033 15.5227 28.4794 15.7415 28.0845 15.8977C27.6896 16.0511 27.2379 16.1278 26.7294 16.1278Z" fill="black" fill-opacity="0.8"/>
<defs>
<radialGradient id="paint0_radial_4587_75158" cx="0" cy="0" r="1" gradientUnits="userSpaceOnUse" gradientTransform="translate(27.7266 25.324) scale(39.8207 30.7857)">
<stop offset="0.199" stop-color="#FEC832"/>
<stop offset="0.601" stop-color="#FCD667"/>
<stop offset="0.68" stop-color="#FDDA75"/>
<stop offset="0.886" stop-color="#FEE496"/>
<stop offset="1" stop-color="#FFE8A2"/>
</radialGradient>
</defs>
</svg>
