<svg width="24" height="24" viewBox="0 0 24 24" fill="none" xmlns="http://www.w3.org/2000/svg">
<path d="M19.651 9C20.2995 8.95052 21 10.5 21.75 10.5H22V4.5C22 3.95052 21.5495 3.5 21 3.5H6.5C5.95052 3.5 5.5 3.95052 5.5 4.5V10.5H5.29948C4.5 10.5 3.84896 8.95052 3.20052 9C2.34896 9.04948 2 9.75 2 10.599V13.4505C2 14.25 2.34896 15 3.15104 15.0495C3.79948 15.099 4.5 13.5495 5.25 13.5495H5.5V19.5495C5.5 20.099 5.95052 20.5495 6.5 20.5495H21C21.5495 20.5495 22 20.099 22 19.5495V13.5H21.7995C21 13.5 20.349 15.0495 19.7005 15C18.901 14.9505 18.5495 14.25 18.5495 13.401V10.5495C18.5 9.75 18.849 9.04948 19.651 9Z" fill="url(#paint0_linear_3653_164050)"/>
<defs>
<linearGradient id="paint0_linear_3653_164050" x1="4.726" y1="2.86" x2="20.985" y2="19.328" gradientUnits="userSpaceOnUse">
<stop stop-color="#0077D2"/>
<stop offset="1" stop-color="#0B59A2"/>
</linearGradient>
</defs>
</svg>
